<svg width="18" height="18" viewBox="0 0 18 18" fill="none" xmlns="http://www.w3.org/2000/svg">
  <rect width="18" height="18"/>
  <path d="M0.919188 7.208865C1.941543 5.624028 3.714246 5.047164 5.69313 5.047164C6.230772 5.047164 12.16881 5.047164 12.25638 5.047164C13.03236 5.047164 13.49307 5.379111 13.905 5.680296C13.91877 5.690502 13.93137 5.694696 13.923 5.680296C13.19769 4.43925 11.49237 3.6108 9.9 3.6C9.8955 3.6 5.535936 3.603303 5.535936 3.603303C2.581857 3.6441 0.978921 4.504518 0.900009 7.21791C0.899687 7.23591 0.909243 7.224165 0.919188 7.208865Z" fill="#1476FC"/>
  <path d="M17.1 9.00684C17.1 4.798935 14.83956 3.425886 12.06 3.61728C12.04371 3.618477 12.39498 3.773997 12.40947 3.780891C14.06664 4.559364 15.50439 5.964084 15.50439 8.999964C15.50439 11.95695 13.8645 13.3254 13.14 13.905C12.69 14.265 12.35898 14.39343 12.375 14.39433C12.74004 14.4144 17.1 14.60673 17.1 9.00684Z" fill="#1476FC"/>
  <path d="M11.988 14.04027C12.8628 13.55787 13.54356 13.24377 13.932 12.375C13.93839 12.3606 13.91787 12.3651 13.905 12.375C13.80168 12.4542 13.6611 13.00626 12.0303 13.00626C9.74151 13.00626 5.836932 13.00626 5.686803 13.00626C3.824379 13.00626 2.350782 11.56383 2.350782 9.00855C2.350782 7.217622 2.520009 7.147557 2.803509 6.607557C2.803509 6.607557 3.335553 5.905548 3.317913 5.913342C2.420028 6.28173 1.921239 6.708258 1.353519 7.456122C0.4213089 8.64558 0.8469045 11.7603 2.195748 13.1265C3.088179 14.01444 4.425543 14.40954 5.655375 14.39667L10.368 14.39937C10.88757 14.40207 11.62755 14.23899 11.988 14.04027Z" fill="#1476FC"/>
  <path d="M9.47277 7.941933V11.74077H8.501724V7.941933H9.47277ZM8.993457 5.997654C9.1422 5.997654 9.27036 6.035013 9.37773 6.109722C9.48798 6.184431 9.54306 6.313248 9.54306 6.496155C9.54306 6.676497 9.48798 6.805305 9.37773 6.882588C9.27036 6.957306 9.1422 6.994656 8.993457 6.994656C8.839188 6.994656 8.708337 6.957306 8.600895 6.882588C8.496216 6.805305 8.443872 6.676497 8.443872 6.496155C8.443872 6.313248 8.496216 6.184431 8.600895 6.109722C8.708337 6.035013 8.839188 5.997654 8.993457 5.997654Z" fill="#1476FC"/>
</svg>