<svg version="1.1" id="Layer_1" xmlns="http://www.w3.org/2000/svg" x="0" y="0" viewBox="0 0 367.1 72" xml:space="preserve"><style>.st0{fill:#59595b}</style><path class="st0" d="M160.6 66.1C155.9 70 149 72 139.9 72c-8.8 0-15.7-1.9-20.7-5.6-5.1-3.7-7.9-9.4-8.5-17.2h15c.6 3.7 2.1 6.4 4.5 8.2s5.9 2.6 10.5 2.6c4.4 0 7.5-.8 9.3-2.5s2.6-3.8 2.6-6.3c0-2-.6-3.8-1.9-5.3-1.2-1.5-3.8-2.5-7.5-3.2l-9-1.7c-7.3-1.3-12.8-3.6-16.5-6.7-3.7-3.1-5.5-7.7-5.5-13.7 0-4.5 1.1-8.3 3.4-11.3 2.3-3.1 5.5-5.4 9.6-7s8.9-2.4 14.3-2.4c6 0 10.8.8 14.6 2.5s6.7 4 8.7 6.9 3.3 6.3 3.8 10L152 21.1c-.8-3.2-2.2-5.6-4-7.1-1.8-1.5-4.8-2.3-8.9-2.3-4.4 0-7.5.7-9.3 2.2-1.9 1.5-2.8 3.4-2.8 5.7s.7 4.1 2.1 5.3c1.4 1.2 3.9 2.2 7.4 2.9l9.4 1.8c7.6 1.5 13.2 3.8 16.6 7.1 3.5 3.2 5.2 7.8 5.2 13.7-.1 6.6-2.4 11.8-7.1 15.7zM174.2 1.7H200c6.5 0 11.6.9 15.5 2.7 3.9 1.8 6.7 4.3 8.4 7.4 1.7 3.2 2.6 6.8 2.6 10.8 0 4.4-.9 8.1-2.7 11.3-1.8 3.2-4.5 5.8-8.3 7.7l14.3 28.6H214l-12-25.3h-13.4v25.2h-14.4V1.7zm25.5 31.7c4.7 0 8-.9 9.7-2.6 1.7-1.8 2.6-4.3 2.6-7.6 0-3.2-.9-5.6-2.8-7.2-1.9-1.6-5.2-2.4-10.1-2.4h-10.5v20h11.1v-.2zM276.8 22.2l-5.8 1.1c-1.1-6.1-2.8-10.7-5.2-13.6-2.4-2.9-5.5-4.4-9.4-4.4-5.6 0-9.8 2.6-12.6 7.8-2.8 5.2-4.3 12.9-4.3 23s1.4 17.8 4.3 23c2.9 5.2 7.1 7.8 12.7 7.8 8.8 0 13.7-6.3 14.9-18.9h6c-.6 7.8-2.8 13.8-6.3 17.9-3.6 4.1-8.5 6.2-14.7 6.2-7.6 0-13.3-3-17.1-9.1-3.9-6-5.8-15-5.8-26.7 0-11.8 2-20.8 6-27 4-6.1 9.7-9.2 17.3-9.2 10.9-.1 17.6 7.3 20 22.1zM285.1 1.7h16.3c5.8 0 10.4 1.5 13.7 4.5 3.3 3 4.9 7.1 4.9 12.4 0 7.6-3.5 12.7-10.6 15.3 3.9 1 7 3.1 9.3 6.2 2.3 3.1 3.4 6.8 3.4 11.2 0 5.9-1.7 10.5-5.2 13.9s-8.3 5.1-14.4 5.1H285V1.7h.1zm16.8 30.2c4 0 7-1.1 9.1-3.3s3.2-5.4 3.2-9.5c0-8.3-4.4-12.4-13.3-12.4h-10v25.2h11zm.2 33.4c9.5 0 14.3-4.7 14.3-14.1 0-4.5-1.2-8.1-3.6-10.6s-5.8-3.7-10.1-3.7h-11.8v28.4h11.2zM330.1 1.7h16.3c5.8 0 10.4 1.5 13.7 4.5 3.3 3 4.9 7.1 4.9 12.4 0 7.6-3.5 12.7-10.6 15.3 3.9 1 7 3.1 9.3 6.2 2.3 3.1 3.4 6.8 3.4 11.2 0 5.9-1.7 10.5-5.2 13.9s-8.3 5.1-14.4 5.1H330V1.7h.1zm16.8 30.2c4 0 7-1.1 9.1-3.3s3.2-5.4 3.2-9.5c0-8.3-4.4-12.4-13.3-12.4h-10v25.2h11zm.2 33.4c9.5 0 14.3-4.7 14.3-14.1 0-4.5-1.2-8.1-3.6-10.6s-5.8-3.7-10.1-3.7h-11.8v28.4h11.2z"/><g><path d="M102.3 0v72s-14.9-10-37-10C47.5 62 10.1 65 0 16.1c0 0 6.8 5.9 20.7 5.9 22.6 0 29.9-22 81.6-22z" fill="#fff"/><path d="M36.6 54.9c.4-.5 1.1-1.3 2.2-1.6.6 2.8 1.5 5.3 2.6 7.5 1.6.3 3.1.5 4.6.7-1.3-2.2-2.5-4.9-3.3-8 5.4 1 10.8 4.5 16.4 8.2.3.2.5.3.8.5H67.1c-2-1.2-3.9-2.4-5.8-3.7-6.2-4-12.6-8.2-19.3-8.9-.2-1.1-.3-2.3-.4-3.6h.3c3.6.4 10 1.1 18.2 1.1h.3v5.6l4.8 4.9h13.2l4.9-4.9V45c6.1-1.1 12.5-2.7 18.9-5.1v-4.1c-6.4 2.5-12.8 4.1-18.9 5.3V20.2h2.3V14c3.2-.9 6.7-1.5 10.4-1.6 2.6 3.2 4.7 6.8 6.2 10.7V0C94 0 86.9.6 80.7 1.5c4.4 1.7 8.5 4.2 11.9 7.3-5.2.5-9.9 1.8-14.1 3.6h-5v7.8h2.2v29.2H68V20.2h2.1v-7.8H58v7.8h2.5v3.2l-.1.1C54 28.1 48.3 32.2 42.3 33c1.1-8.7 3.6-15.7 6.7-21.1-2 1-3.9 2-5.7 3C41.1 20 39.4 26 38.5 33c-1.4-.4-2.5-1.3-3.4-2.9-1.1-2-1.5-4.6-1.5-7 .6-1.5 1.2-3 2-4.4-4.6 2-9.2 3.4-14.8 3.4-14 0-20.7-5.9-20.7-5.9 6.5 31.5 24.3 41.4 41 44.5-1.8-1.8-3.2-3.8-4.5-5.8zm5.2-18.1c6.6-.6 12.5-4.5 18.6-8.8v15.1c-8.1 0-14.5-.7-18.1-1.1h-.7c0-1.8.1-3.5.2-5.2zm-10.5-1c0-1.4.1-2.8.3-4.2.1.1.1.2.1.3 1.5 2.7 3.7 4.4 6.4 4.9-.1 1.5-.2 3-.2 4.5-2.9-.8-5.1-2-6.4-2.8-.2-.9-.2-1.8-.2-2.7zm.7 7.4c1.6.7 3.6 1.5 5.8 2 .1 1.5.2 2.9.4 4.3-1.3.3-2.5 1-3.5 1.9-1.2-2.6-2.1-5.4-2.7-8.2zm70.3 5.3V72s-5.2-3.5-14-6.4c1.7-.8 2.9-1.5 2.9-1.5 4.9-4.1 8.8-9.4 11.1-15.6z" fill="#cf2036"/></g></svg>