<?xml version="1.0" encoding="UTF-8"?><svg id="a" xmlns="http://www.w3.org/2000/svg" viewBox="0 0 134 62"><path d="M3.22,54.72h2.13l3.22,6.51h-2.1l-.51-1.06h-3.48l-.5,1.06H0l3.22-6.51ZM4.22,56.55l-1.12,2.34h2.26l-1.11-2.34h-.02ZM11.68,54.75h2.83l1.99,4.11h.03l1.98-4.11h2.84v6.48h-1.94v-4.62h-.02l-2.26,4.62h-1.42l-2.26-4.62h-.02v4.62h-1.76v-6.48ZM22.95,54.75h6.46v1.45h-4.55v1.08h3.45v1.34h-3.45v1.16h4.55v1.45h-6.46v-6.48h0ZM30.74,54.75h3.3c.66,0,1.25.08,1.76.23.51.15.93.37,1.26.64.34.28.59.61.76,1.01.17.39.25.84.25,1.32s-.08.94-.25,1.35-.42.75-.76,1.04c-.34.29-.76.51-1.26.66-.51.16-1.09.23-1.76.23h-3.3v-6.48ZM32.68,56.27v3.45h1.3c.69,0,1.22-.15,1.59-.45s.55-.72.55-1.27-.18-.97-.55-1.27c-.37-.3-.9-.45-1.59-.45h-1.3ZM39.37,54.75h1.94v6.48h-1.94v-6.48ZM46.74,54.6c.64,0,1.21.08,1.72.23.51.16,1,.36,1.47.62l-.76,1.4c-.34-.18-.7-.34-1.08-.47-.39-.13-.81-.2-1.26-.2-.71,0-1.26.17-1.66.51-.4.34-.6.77-.6,1.29s.21.99.63,1.32c.42.33.99.5,1.7.5.45,0,.85-.07,1.23-.2.37-.14.72-.3,1.04-.48l.73,1.4c-.44.25-.92.45-1.43.62-.52.17-1.09.25-1.73.25s-1.21-.08-1.72-.25c-.51-.17-.94-.4-1.29-.71-.35-.3-.62-.66-.81-1.08-.19-.42-.28-.87-.28-1.36s.1-.93.29-1.34c.19-.42.46-.77.82-1.08.35-.3.79-.54,1.3-.71.51-.18,1.08-.26,1.71-.26h0ZM51.17,54.75h1.94v6.48h-1.94v-6.48ZM54.78,54.75h1.94l3.62,3.91h.02v-3.91h1.8v6.48h-1.93l-3.63-4.01h-.02v4.01h-1.8v-6.48h0ZM63.75,54.75h6.46v1.45h-4.55v1.08h3.45v1.34h-3.45v1.16h4.55v1.45h-6.46v-6.48h0ZM77.46,54.6c.64,0,1.21.08,1.72.23.51.16,1,.36,1.47.62l-.76,1.4c-.34-.18-.7-.34-1.08-.47-.39-.13-.81-.2-1.26-.2-.71,0-1.26.17-1.66.51-.4.34-.6.77-.6,1.29s.21.99.63,1.32c.42.33.99.5,1.7.5.45,0,.85-.07,1.23-.2.37-.14.72-.3,1.04-.48l.73,1.4c-.44.25-.92.45-1.43.62-.52.17-1.09.25-1.73.25s-1.21-.08-1.72-.25c-.51-.17-.94-.4-1.29-.71-.35-.3-.62-.66-.81-1.08-.19-.42-.28-.87-.28-1.36s.1-.93.29-1.34c.19-.42.46-.77.82-1.08.35-.3.79-.54,1.3-.71.51-.18,1.08-.26,1.71-.26h0ZM85.19,54.58c.6,0,1.15.08,1.64.25.49.17.92.4,1.26.7.35.3.62.66.81,1.08.19.42.29.89.29,1.39s-.1.97-.29,1.39c-.19.42-.46.78-.81,1.08-.35.3-.77.53-1.26.7-.49.17-1.04.25-1.64.25s-1.14-.08-1.63-.25c-.49-.17-.91-.4-1.26-.7-.35-.3-.62-.66-.81-1.08-.19-.42-.29-.89-.29-1.39s.1-.97.29-1.39c.19-.42.46-.78.81-1.08.35-.3.77-.53,1.26-.7.49-.17,1.03-.25,1.63-.25ZM85.19,56.08c-.28,0-.55.04-.79.13-.25.09-.46.21-.64.37-.18.16-.32.36-.43.6-.11.24-.16.51-.16.81s.05.57.16.81c.11.24.25.44.43.6.18.16.39.29.64.38.25.09.51.13.79.13s.55-.04.8-.13c.25-.09.47-.21.65-.38.18-.16.33-.36.43-.6.1-.24.16-.51.16-.81s-.05-.58-.16-.81c-.11-.24-.25-.44-.43-.6-.18-.16-.4-.29-.65-.37-.25-.09-.51-.13-.8-.13ZM90.42,54.75h2.83l1.99,4.11h.03l1.98-4.11h2.83v6.48h-1.94v-4.62h-.02l-2.26,4.62h-1.42l-2.26-4.62h-.02v4.62h-1.76v-6.48ZM101.69,54.75h3.81c.9,0,1.61.2,2.12.61.51.41.76.95.76,1.64s-.26,1.27-.79,1.68c-.53.41-1.24.61-2.13.61h-1.83v1.95h-1.94v-6.48h0ZM103.62,56.2v1.65h1.54c.47,0,.8-.07,1-.23.19-.15.29-.35.29-.6s-.1-.45-.29-.6c-.19-.15-.51-.23-.96-.23h-1.58ZM111.36,54.72h2.13l3.22,6.51h-2.1l-.51-1.06h-3.49l-.5,1.06h-1.98l3.22-6.51h0ZM112.35,56.55l-1.12,2.34h2.26l-1.11-2.34h-.02ZM117.65,54.75h1.93l3.62,3.91h.02v-3.91h1.8v6.48h-1.92l-3.63-4.01h-.02v4.01h-1.8v-6.48h0ZM125.82,54.75h2.29l1.86,2.63,1.87-2.63h2.17l-3.11,4.11v2.38h-1.96v-2.38l-3.12-4.11h0Z" style="fill:#e1251b;"/><path d="M23.2,43.12c3.79,0,7.38-.88,10.63-2.68,2.04,1.34,4.68,2.68,8.6,2.68s7.58-1.91,10.14-3.6c.04.94.35,1.75.93,2.35.8.82,2.03,1.25,3.59,1.25,2.71,0,6.1-1.05,10.1-3.3,1.09,2.13,3.47,3.3,6.42,3.3,3.17,0,6.96-.97,10.91-2.93.95,1.86,3,2.93,5.45,2.93,3.13,0,6.34-1.09,10.32-3.52-.02.19-.04.36-.04.53,0,.78.21,1.43.62,1.93.57.7,1.53,1.07,2.75,1.07.81,0,1.82-.13,2.78-.5-2.55,2.61-4.96,5.65-6.82,8.51h4.87c5.14-7.28,13.07-14.33,16.12-17.37l-2.99-2.33c-3.8,3.75-8.86,8-12.07,8-.52,0-.75-.22-.76-.56-.04-1.03,1.31-2.81,2.65-4.43l-3.13-2.44c-4.36,4.17-9.96,7.57-13.14,7.57-1.42,0-2.34-.58-2.82-1.49,10.67-6.83,15.1-13.36,15.1-17.18,0-1.69-1.15-2.76-3.1-2.76-3.16,0-6.81,2.26-10.08,5.72-3.25,3.46-5.81,8.32-6.28,12.84-4.03,2.11-7.41,2.88-9.15,2.88-2.22,0-3.53-.59-4.09-1.81h0c10.98-7.19,18.52-16.58,18.52-20.95,0-1.78-1.17-2.8-3.21-2.8-7.23,0-19.14,13.36-19.53,22.09v.03c-3.53,2.18-6.53,3.44-8.48,3.44-.64,0-1.38-.17-1.38-1.05,0-1.16,1.57-3.22,3.27-5.18l.14-.17-3.01-2.35-.14.13c-3.85,3.95-8.78,8.61-13.87,8.61-2.05,0-3.76-.6-5.59-1.59,3.02-2.45,6.04-5.84,9.72-10.96,9.45-1.85,16.21-7.45,19.95-11.21,2.38-2.39,6.03-6.96,6.03-11.21,0-2.07-1.33-3.61-3.87-3.61-8.58,0-18.55,13.96-25.06,22.95-1.25.17-2.52.29-3.78.29-7.37,0-10.85-3.1-10.85-6.2,0-4.71,6.77-9.52,14.9-10.46-.5-1.13-.99-2.08-1.53-3.31-8.23.85-17.63,6.63-17.63,14.09,0,1.88.62,3.64,1.94,5.13,2.44,2.76,6.91,4.34,12.26,4.34.59,0,1.19-.02,1.81-.05-2.8,3.56-5.16,6.08-7.42,7.88-2.38-1.72-6.17-3.38-10.11-3.38-4.63,0-8.09,2.25-8.09,5.57,0,4.11,4.62,5.3,7.49,5.3h0ZM87.96,34.42c1.68-5.61,8.63-12.54,10.8-12.54.22,0,.33.16.33.4,0,.17-.06.38-.09.45-.71,2.29-4.32,6.43-9.04,10.21-.61.48-1.27.99-1.88,1.42l-.12.06v-.02h0ZM84.55,17.76c.25,0,.35.18.37.37,0,.09-.02.19-.04.28-.74,2.97-7.64,10.2-14.21,15.17,2.18-6.93,11.81-15.82,13.89-15.82ZM60.06,10.8c3.64-3.65,6.35-5.54,7.77-5.54.37,0,.67.25.67.66,0,1.79-2.47,5.42-5.55,8.47-3.33,3.3-7.8,6.46-12.51,7.97,3.48-4.83,6.79-8.71,9.62-11.56ZM23.49,35.69c2.4,0,5.08,1.05,6.82,2.26-2.13,1.05-4.35,1.71-6.8,1.71-2.02,0-3.83-.58-3.83-1.9,0-1.16,1.49-2.07,3.81-2.07h0ZM62.38,25c1.42,0,2.57,1.15,2.57,2.57s-1.15,2.57-2.57,2.57-2.57-1.15-2.57-2.57,1.15-2.57,2.57-2.57Z" style="fill:#e1251b;"/></svg>