<svg width="140" height="40" viewBox="0 0 140 40" fill="none" xmlns="http://www.w3.org/2000/svg">
<g clip-path="url(#clip0_2762_3727)">
<path d="M130.586 8.6875V22.8549L139.954 15.7732L130.586 8.6875Z" fill="#005EFF"/>
<path d="M2.58752 21.4257C4.03979 22.6612 6.22136 23.278 9.12883 23.278C11.9513 23.278 14.1319 22.6825 15.6711 21.4896C17.2104 20.2115 17.9795 18.4217 17.9795 16.1221C17.9795 15.0576 17.7701 14.0757 17.274 13.182C16.8197 12.3639 16.0481 11.5927 15.1143 11.1274C14.5235 10.8331 14.1634 10.7043 13.4351 10.4811C12.6485 10.2415 8.73673 9.17785 8.34074 9.07327C6.16112 8.54413 4.77735 7.82036 4.76763 6.53646C4.88036 4.05144 7.20429 3.85295 8.48699 3.85295C9.81197 3.85295 10.8605 4.13035 11.6301 4.68371C13.01 5.75459 12.8564 7.1145 12.8564 7.1145H17.2094C17.1234 4.98435 16.3528 3.25651 14.9005 1.93581C13.4895 0.743411 11.479 0.146484 8.87132 0.146484C6.09212 0.146484 3.97566 0.721626 2.52241 1.87191C1.06868 3.06528 0.342786 4.70598 0.342786 6.79208C0.350074 9.47413 1.62549 11.0543 2.77944 11.7761C3.48201 12.1954 5.07665 12.8374 7.14015 13.246L8.87423 13.6231C11.8813 14.3527 13.6071 15.2783 13.5532 16.7602C13.5206 17.6549 13.2116 18.338 12.527 18.8057C11.9012 19.2322 10.8381 19.5086 9.51315 19.5086C8.01618 19.5086 6.84134 19.2109 5.9862 18.6139C5.17334 18.1027 4.68212 17.208 4.51109 15.9295H0.02211C0.15038 18.3578 1.00503 20.1902 2.58752 21.4257Z" fill="#000A4E"/>
<path d="M30.6258 14.5035C30.6258 12.8332 30.3187 9.30152 26.888 9.30152C23.6312 9.30152 23.2789 12.7485 23.2789 14.5035C23.2789 18.9477 25.8142 19.5127 27.0172 19.5127C30.1326 19.5127 30.6258 16.2197 30.6258 14.5035ZM23.2789 27.0907C23.2789 28.2347 22.3864 29.2741 21.0876 29.2741H18.8963V13.283C19.1509 9.02848 20.7038 5.63766 27.1887 5.40625C29.9942 5.44159 32.029 6.55363 33.2325 7.9542C34.522 9.62444 35.074 11.6989 35.074 14.3108C35.074 17.0074 34.4292 19.1912 33.1402 20.861C31.8512 22.4891 30.1968 23.302 28.177 23.302C25.1476 23.302 23.6764 22.0456 23.277 21.8099C23.277 21.9556 23.2789 27.0907 23.2789 27.0907Z" fill="#000A4E"/>
<path d="M44.1117 19.4653C43.0005 19.4096 40.8855 19.1928 40.6911 15.5037L51.8045 15.5057C51.8065 15.3933 51.8045 14.1792 51.8074 14.1762C51.7307 11.3969 51.0621 9.32531 49.7551 7.77127C48.3441 6.23756 46.3564 5.4707 43.79 5.4707C41.3539 5.4707 39.4507 6.25983 38.0835 7.83517C36.7575 9.36888 36.0957 11.5 36.0957 14.2251C36.0957 17.08 36.7784 19.2741 38.1481 20.8078C39.5153 22.3836 41.4185 23.1723 43.8547 23.1723C45.8652 23.1723 47.5317 22.6828 48.8577 21.7025C50.1827 20.7657 51.0878 19.3975 51.5577 17.6072L47.6955 17.6082C47.1275 19.2136 45.6747 19.5442 44.1127 19.4658M43.9193 9.17717C46.6751 9.14038 47.1032 11.4772 47.1897 12.6275H40.6484C40.6484 12.6275 40.5935 9.23817 43.9193 9.17717Z" fill="#000A4E"/>
<path d="M64.0602 17.6128H68.2756C68.2756 17.6128 67.1314 23.1711 60.7635 23.1711C54.3957 23.1711 52.8287 18.0791 52.8287 14.7338C52.8287 11.3884 53.4249 5.67286 60.5162 5.47194C67.0682 5.37464 68.1478 11.0312 68.1478 11.0312H63.6598C63.6598 11.0312 63.2245 9.11886 60.5527 9.17889C57.8808 9.23893 57.1826 11.7394 57.1826 14.1155C57.1826 16.4916 57.7759 19.4651 60.7422 19.4651C63.5631 19.5508 63.8109 18.0316 64.0602 17.6128Z" fill="#000A4E"/>
<path d="M73.7164 10.3982H76.3528L76.3508 5.91907H73.7213V3.04385C73.7213 2.25472 73.2806 0.871094 71.6048 0.871094H69.296V19.6581C69.296 21.6173 70.0583 22.7889 71.7103 22.7889C71.7292 22.7889 73.6469 22.7908 73.7164 22.7908L73.7155 10.3982H73.7164Z" fill="#000A4E"/>
<path d="M81.0507 22.8217V14.0678C81.0507 12.7897 81.3485 11.8529 81.9486 11.2565C82.5467 10.6595 83.465 10.3618 84.7059 10.3618H86.181V5.82409C86.181 5.82409 83.8581 5.76841 82.1735 6.27239C81.0905 6.5953 80.1304 7.03924 79.3195 7.67732C78.4634 8.35945 77.7905 9.26477 77.2988 10.3933C76.8076 11.5227 76.5617 12.9175 76.5617 14.579V22.8217H81.0507Z" fill="#000A4E"/>
<path d="M87.4506 5.85009H91.9396V16.7129C91.9396 16.7129 91.7778 19.6511 94.8903 19.653C97.8259 19.6549 97.8998 17.0242 97.9027 16.8378V7.95749C97.9027 7.95749 98.0543 5.84961 100.001 5.84961H102.329C102.329 5.84961 102.327 15.8429 102.329 15.9393C102.298 16.4892 102.917 23.1707 94.8903 23.1435C86.9375 23.1435 87.5021 16.3837 87.4506 15.9853V5.85009Z" fill="#000A4E"/>
<path d="M118.539 22.8764H114.092V11.9589C114.092 10.7007 113.572 9.00526 111.062 9.00526C108.599 9.00526 108.098 10.9311 108.098 11.9589V22.8764H103.585V12.8579C103.585 9.94736 104.452 8.16917 105.874 7.01356C107.282 5.87054 109.086 5.49438 110.933 5.4082C111.922 5.4082 112.889 5.51616 113.834 5.72966C114.779 5.94461 115.638 6.3721 116.412 7.01405C117.057 6.45876 117.819 6.06177 118.7 5.826C119.581 5.5912 120.492 5.41401 121.439 5.40869C126.942 5.37964 129.151 7.8908 129.334 8.69638C129.334 8.708 129.336 22.8774 129.336 22.8774H126.789C126.145 22.8774 124.598 22.4407 124.598 20.694V11.9599C124.609 10.7215 124.174 9.00622 121.568 9.00622C118.99 9.00622 118.539 10.9321 118.539 11.9599V22.8774V22.8764Z" fill="#000A4E"/>
<path d="M62.6618 29.7505C63.0044 30.2245 63.1754 30.7919 63.1754 31.4527C63.1754 32.1334 63.0029 32.6805 62.6575 33.0944C62.4646 33.3263 62.1799 33.5383 61.8038 33.7296C62.3747 33.9363 62.8057 34.264 63.0962 34.7128C63.3872 35.1616 63.532 35.7063 63.532 36.3468C63.532 37.0071 63.3659 37.6002 63.034 38.1245C62.8227 38.4725 62.5588 38.765 62.2416 39.0017C61.8844 39.2738 61.4627 39.4607 60.9768 39.5613C60.491 39.662 59.9643 39.7124 59.3958 39.7124H54.3539V28.5625H59.7617C61.1265 28.5828 62.0929 28.9784 62.6618 29.7501V29.7505ZM56.5855 30.4995V32.9579H59.3054C59.7913 32.9579 60.1853 32.8659 60.4885 32.6819C60.7917 32.498 60.9433 32.1712 60.9433 31.7025C60.9433 31.1831 60.7431 30.8403 60.3423 30.6738C59.9968 30.5581 59.5561 30.5 59.0197 30.5H56.5855V30.4995ZM56.5855 34.8038V37.7769H59.3025C59.7874 37.7769 60.1654 37.711 60.4356 37.5803C60.9258 37.3382 61.1712 36.8745 61.1712 36.1884C61.1712 35.6085 60.9336 35.2105 60.4584 34.9931C60.1931 34.8721 59.8205 34.8092 59.3404 34.8038H56.5855Z" fill="#000A4E"/>
<path d="M64.9717 28.5625H67.3481V35.4105C67.3481 36.1763 67.4389 36.7355 67.6207 37.0884C67.903 37.7134 68.5186 38.0257 69.4665 38.0257C70.4096 38.0257 71.0223 37.713 71.3046 37.0884C71.4858 36.7355 71.5771 36.1763 71.5771 35.4105V28.5625H73.9535V35.4158C73.9535 36.6009 73.7689 37.5237 73.4001 38.1845C72.7131 39.3948 71.4017 40 69.4665 40C67.5313 40 66.2179 39.3948 65.5256 38.1845C65.1568 37.5241 64.9722 36.6014 64.9722 35.4158V28.5625H64.9717Z" fill="#000A4E"/>
<path d="M77.4732 36.2704C77.5456 36.7797 77.6875 37.1607 77.8993 37.4124C78.2865 37.8714 78.9512 38.1009 79.8914 38.1009C80.4545 38.1009 80.9122 38.0404 81.2635 37.9193C81.9301 37.6874 82.2634 37.2561 82.2634 36.6257C82.2634 36.2573 82.1002 35.9727 81.7737 35.7708C81.4467 35.5742 80.9292 35.3999 80.2198 35.2489L79.0085 34.9841C77.8177 34.7217 77 34.437 76.5544 34.1291C75.8003 33.615 75.4233 32.8103 75.4233 31.7162C75.4233 30.718 75.7921 29.8882 76.5296 29.2273C77.2672 28.567 78.3512 28.2363 79.7806 28.2363C80.9739 28.2363 81.9923 28.5481 82.8353 29.1707C83.6778 29.7933 84.1199 30.6971 84.1607 31.8828H81.9136C81.8723 31.2118 81.571 30.7354 81.0108 30.4531C80.6377 30.2663 80.1727 30.1733 79.6178 30.1733C79.0008 30.1733 78.5076 30.2943 78.1393 30.5364C77.771 30.7785 77.5869 31.1164 77.5869 31.5502C77.5869 31.9486 77.7686 32.2463 78.1316 32.4429C78.3648 32.5741 78.8604 32.728 79.6183 32.9043L81.5817 33.3656C82.4422 33.5675 83.0879 33.8372 83.517 34.1751C84.1841 34.6994 84.5179 35.4585 84.5179 36.4519C84.5179 37.4705 84.1228 38.3168 83.3323 38.9897C82.5423 39.6631 81.4258 39.9996 79.9827 39.9996C78.5096 39.9996 77.3508 39.6685 76.5068 39.0047C75.6628 38.3415 75.2411 37.4299 75.2411 36.2704H77.4732Z" fill="#000A4E"/>
<path d="M88.0706 39.7134H85.7471V28.5625H88.0706V39.7134Z" fill="#000A4E"/>
<path d="M89.9038 28.5625H92.355L96.7973 36.3371V28.5625H98.976V39.7124H96.638L92.0824 31.8008V39.7124H89.9038V28.5625Z" fill="#000A4E"/>
<path d="M109.075 30.5382H103.154V32.9061H108.589V34.8426H103.154V37.7096H109.348V39.7143H100.868V28.5645H109.075V30.5387L109.075 30.5382Z" fill="#000A4E"/>
<path d="M112.378 36.2704C112.45 36.7797 112.592 37.1607 112.804 37.4124C113.191 37.8714 113.855 38.1009 114.796 38.1009C115.359 38.1009 115.817 38.0404 116.168 37.9193C116.835 37.6874 117.168 37.2561 117.168 36.6257C117.168 36.2573 117.005 35.9727 116.678 35.7708C116.351 35.5742 115.834 35.3999 115.124 35.2489L113.913 34.9841C112.722 34.7217 111.905 34.437 111.459 34.1291C110.705 33.615 110.328 32.8103 110.328 31.7162C110.328 30.718 110.697 29.8882 111.434 29.2273C112.172 28.567 113.256 28.2363 114.685 28.2363C115.879 28.2363 116.897 28.5481 117.74 29.1707C118.582 29.7933 119.025 30.6971 119.065 31.8828H116.818C116.777 31.2118 116.476 30.7354 115.915 30.4531C115.542 30.2663 115.077 30.1733 114.522 30.1733C113.905 30.1733 113.412 30.2943 113.044 30.5364C112.676 30.7785 112.492 31.1164 112.492 31.5502C112.492 31.9486 112.673 32.2463 113.036 32.4429C113.269 32.5741 113.765 32.728 114.523 32.9043L116.486 33.3656C117.347 33.5675 117.993 33.8372 118.422 34.1751C119.089 34.6994 119.422 35.4585 119.422 36.4519C119.422 37.4705 119.027 38.3168 118.236 38.9897C117.446 39.6631 116.33 39.9996 114.887 39.9996C113.414 39.9996 112.255 39.6685 111.411 39.0047C110.567 38.3415 110.145 37.4299 110.145 36.2704H112.378Z" fill="#000A4E"/>
<path d="M122.472 36.2704C122.544 36.7797 122.686 37.1607 122.898 37.4124C123.285 37.8714 123.949 38.1009 124.89 38.1009C125.453 38.1009 125.911 38.0404 126.262 37.9193C126.929 37.6874 127.262 37.2561 127.262 36.6257C127.262 36.2573 127.099 35.9727 126.772 35.7708C126.445 35.5742 125.928 35.3999 125.218 35.2489L124.007 34.9841C122.816 34.7217 121.999 34.437 121.553 34.1291C120.799 33.615 120.422 32.8103 120.422 31.7162C120.422 30.718 120.791 29.8882 121.528 29.2273C122.266 28.567 123.35 28.2363 124.779 28.2363C125.973 28.2363 126.991 28.5481 127.834 29.1707C128.676 29.7933 129.119 30.6971 129.159 31.8828H126.912C126.87 31.2118 126.57 30.7354 126.009 30.4531C125.636 30.2663 125.171 30.1733 124.616 30.1733C123.999 30.1733 123.506 30.2943 123.138 30.5364C122.77 30.7785 122.586 31.1164 122.586 31.5502C122.586 31.9486 122.767 32.2463 123.13 32.4429C123.363 32.5741 123.859 32.728 124.617 32.9043L126.58 33.3656C127.441 33.5675 128.087 33.8372 128.516 34.1751C129.183 34.6994 129.517 35.4585 129.517 36.4519C129.517 37.4705 129.122 38.3168 128.331 38.9897C127.541 39.6631 126.424 39.9996 124.982 39.9996C123.509 39.9996 122.35 39.6685 121.506 39.0047C120.662 38.3415 120.24 37.4299 120.24 36.2704H122.472Z" fill="#000A4E"/>
<path d="M132.589 31.2292C132.249 31.5574 131.84 31.7211 131.365 31.7211C130.873 31.7211 130.459 31.5531 130.121 31.2176C129.785 30.8821 129.616 30.4691 129.616 29.9787C129.616 29.4699 129.798 29.0468 130.162 28.7093C130.503 28.3946 130.904 28.2363 131.365 28.2363C131.847 28.2363 132.259 28.4067 132.601 28.7471C132.942 29.0874 133.113 29.4984 133.113 29.9787C133.113 30.474 132.939 30.8908 132.589 31.2292ZM130.337 28.9693C130.059 29.253 129.92 29.5895 129.92 29.9787C129.92 30.3825 130.061 30.7252 130.344 31.007C130.626 31.2892 130.966 31.4301 131.365 31.4301C131.764 31.4301 132.101 31.2883 132.383 31.0046C132.664 30.7194 132.805 30.3776 132.805 29.9787C132.805 29.5909 132.665 29.2549 132.385 28.9693C132.102 28.6793 131.762 28.5345 131.365 28.5345C130.963 28.5345 130.621 28.6798 130.338 28.9693H130.337ZM130.598 30.9479V29.0167C130.718 29.0167 130.898 29.0172 131.138 29.0182C131.377 29.0187 131.511 29.0201 131.537 29.0216C131.69 29.0327 131.818 29.0661 131.919 29.1208C132.091 29.2152 132.178 29.3692 132.178 29.5817C132.178 29.7444 132.132 29.8615 132.041 29.9337C131.951 30.0058 131.839 30.0489 131.706 30.0634C131.828 30.0886 131.919 30.1259 131.981 30.1748C132.095 30.2663 132.152 30.411 132.152 30.6081V30.7804C132.152 30.7993 132.153 30.8182 132.156 30.8371C132.158 30.8559 132.163 30.8748 132.169 30.8937L132.187 30.9479H131.703C131.688 30.8864 131.677 30.7974 131.671 30.6807C131.666 30.5645 131.655 30.4856 131.64 30.4444C131.615 30.3766 131.567 30.3297 131.497 30.3026C131.46 30.2871 131.402 30.2764 131.324 30.2721L131.213 30.2648H131.106V30.9479H130.599H130.598ZM131.524 29.3973C131.454 29.3706 131.356 29.3571 131.23 29.3571H131.106V29.9172H131.303C131.422 29.9172 131.514 29.8935 131.581 29.8465C131.647 29.7991 131.68 29.7231 131.68 29.6171C131.68 29.5115 131.628 29.4384 131.524 29.3973Z" fill="#000A4E"/>
</g>
<defs>
<clipPath id="clip0_2762_3727">
<rect width="139.976" height="39.8542" fill="white" transform="translate(0 0.146484)"/>
</clipPath>
</defs>
</svg>
